<svg xmlns="http://www.w3.org/2000/svg" width="182" height="40" viewBox="0 0 182 40"><defs><style>.a{fill:#fff;}.b{fill:#b18935;}</style></defs><path class="a" d="M22,38V66H44V60.521H28.284V54.639H41.933V49.161H28.284V43.479H43.793V38Z" transform="translate(-22 -26)"/><path class="a" d="M36,38H57.793v5.479H42.286V49.16H55.931v5.479H42.286v5.88H58V66H36Z" transform="translate(-8 -26)"/><path class="a" d="M50,41.4h6.319v3.089A13.174,13.174,0,0,1,57.5,43.17a8.279,8.279,0,0,1,1.434-1.116,7.181,7.181,0,0,1,1.766-.771A7.8,7.8,0,0,1,62.885,41a7.693,7.693,0,0,1,3.8.892,6.113,6.113,0,0,1,2.474,2.557A10.08,10.08,0,0,1,72.4,41.873,9.16,9.16,0,0,1,76.477,41a7.432,7.432,0,0,1,5.529,2.015A8.084,8.084,0,0,1,84,48.938V63H77.681l0-12.019a4.883,4.883,0,0,0-.957-3.274A3.426,3.426,0,0,0,73.983,46.6a3.619,3.619,0,0,0-2.805,1.107,4.673,4.673,0,0,0-1.019,3.274V63H63.842V50.981a4.873,4.873,0,0,0-.957-3.274A3.426,3.426,0,0,0,60.141,46.6a3.622,3.622,0,0,0-2.805,1.107,4.673,4.673,0,0,0-1.018,3.274V63H50Z" transform="translate(6 -23)"/><path class="a" d="M81.04,57.5a5.8,5.8,0,0,0,2.3-.427,5.038,5.038,0,0,0,2.789-2.9,5.876,5.876,0,0,0,.373-2.1V52a5.614,5.614,0,0,0-.393-2.1,5.3,5.3,0,0,0-1.138-1.745A5.573,5.573,0,0,0,83.2,46.947,5.517,5.517,0,0,0,80.96,46.5a5.835,5.835,0,0,0-2.3.427,5.028,5.028,0,0,0-2.787,2.9,5.838,5.838,0,0,0-.375,2.1V52a5.609,5.609,0,0,0,.393,2.1,5.265,5.265,0,0,0,1.14,1.747,5.611,5.611,0,0,0,1.748,1.208,5.5,5.5,0,0,0,2.258.445M80.962,63a11.12,11.12,0,0,1-4.362-.847,10.608,10.608,0,0,1-3.471-2.326A10.964,10.964,0,0,1,70,52.079V52A10.9,10.9,0,0,1,81.038,41a11.089,11.089,0,0,1,4.362.849,10.608,10.608,0,0,1,3.471,2.326A10.937,10.937,0,0,1,92,51.921V52A10.9,10.9,0,0,1,80.962,63" transform="translate(26 -23)"/><path class="a" d="M113,50a4.785,4.785,0,0,0-1.572-2.9,4.925,4.925,0,0,0-3.362-1.1A4.807,4.807,0,0,0,103,50Zm-4.29,14a12.46,12.46,0,0,1-4.662-.861,10.77,10.77,0,0,1-3.724-2.451,11.369,11.369,0,0,1-2.445-3.763A12.774,12.774,0,0,1,97,52.086V52a13.2,13.2,0,0,1,.816-4.645,11.853,11.853,0,0,1,2.279-3.829,10.692,10.692,0,0,1,3.493-2.58,10.5,10.5,0,0,1,4.5-.946,10.656,10.656,0,0,1,4.852,1.032,9.93,9.93,0,0,1,3.41,2.774,11.726,11.726,0,0,1,2.006,4,17,17,0,0,1,.648,4.71c0,.258-.008.53-.02.818s-.036.588-.062.9h-15.6a5.532,5.532,0,0,0,1.9,3.375,5.6,5.6,0,0,0,3.576,1.141,6.913,6.913,0,0,0,2.846-.56,9.692,9.692,0,0,0,2.594-1.805L117.87,59.7a11.339,11.339,0,0,1-3.846,3.161A11.661,11.661,0,0,1,108.71,64Z" transform="translate(53 -24)"/><path class="a" d="M110,37h6l0,30h-6Z" transform="translate(66 -27)"/><path class="a" d="M101.942,41,96,50.339,90.056,41H82L96,63l14-22Z" transform="translate(38 -23)"/><path class="b" d="M105.9,36.51a13.12,13.12,0,0,0-19.8,0A16.107,16.107,0,0,0,82,47.4c0,.2,0,.4.01.6h7.246q-.021-.3-.021-.6c0-4.1,3.034-7.441,6.764-7.441s6.765,3.338,6.765,7.441c0,.2-.009.4-.023.6h7.246c.009-.2.012-.4.012-.6a16.112,16.112,0,0,0-4.1-10.892" transform="translate(38 -32)"/></svg>